# xmcd
#
# Track frame offsets:
#	150
#	24888
#	39898
#	63748
#	94113
#	115163
#	132330
#	143415
#	181258
#	201975
#	221968
#	254458
#
# Disc length: 3779 seconds
#
# Revision: 2
# Processed by: cddbd v1.5.1PL2 Copyright (c) Steve Scherf et al.
# Submitted via: audiograbber 1.83.01
#
DISCID=ab0ec10c
DTITLE=Various Artist - Bring it on home - Vol. 2
DYEAR=1994
DGENRE=Country
TTITLE0=Maria Muldaur - Weeping Willow Blues
TTITLE1=Maria Muldaur - New Orleans
TTITLE2=John Herald - Foggy River
TTITLE3=Rick Danko - Raining in My Heart
TTITLE4=John Hall - You Can Dream on Me
TTITLE5=John Hall - Still the One
TTITLE6=Amy Fradon - Bread of Heaven
TTITLE7=Mikhail Horowitz - The Shooting of Dan's Guru
TTITLE8=Josh Colow - Like A Dovetail
TTITLE9=Jorma Kaukonen - Walking Blues
TTITLE10=Jorma Kaukonen - Killing Time in the Crystal City
TTITLE11=Rick Danko and Co. - The Weight
EXTD=
EXTT0=
EXTT1=
EXTT2=
EXTT3=
EXTT4=
EXTT5=
EXTT6=
EXTT7=
EXTT8=
EXTT9=
EXTT10=
EXTT11=
PLAYORDER=
